<svg width="100" height="100" viewBox="0 0 100 100" fill="none" xmlns="http://www.w3.org/2000/svg">
<path fill-rule="evenodd" clip-rule="evenodd" d="M50.4998 25.9999C64.0302 25.9999 75 36.9689 75 50.4997C75 64.0306 64.0302 74.9996 50.4998 74.9996C36.9689 74.9996 26 64.0306 26 50.4997C26 36.9689 36.9689 25.9999 50.4998 25.9999ZM49.6143 27.8332C46.8192 28.2266 44.1578 30.4725 42.0918 34.2287C41.4926 35.3182 40.9519 36.5219 40.4807 37.8216C43.2899 37.1157 46.3758 36.6995 49.6143 36.6351V27.8332ZM38.41 38.4101C38.996 36.5711 39.7128 34.8792 40.54 33.3752C41.5641 31.5131 42.7796 29.9051 44.149 28.6701C36.7024 30.8328 30.8328 36.7024 28.6701 44.149C29.9052 42.7796 31.5131 41.5642 33.3752 40.5401C34.8792 39.7128 36.5711 38.996 38.41 38.4101ZM37.8216 40.4807C37.1157 43.2898 36.6996 46.3757 36.6351 49.6142H27.8332C28.2265 46.8191 30.4724 44.1577 34.2288 42.0919C35.3183 41.4926 36.5219 40.9519 37.8216 40.4807ZM38.4066 49.6142C38.4797 46.08 38.9886 42.762 39.8304 39.8303C42.762 38.9885 46.08 38.4796 49.6143 38.4065V42.232C48.2958 45.6074 45.6067 48.2962 42.2313 49.6142H38.4066ZM36.6351 51.3853H27.8332C28.2265 54.1804 30.4724 56.8416 34.2288 58.9076C35.3183 59.5069 36.5219 60.0476 37.8216 60.5188C37.1157 57.7097 36.6996 54.6238 36.6351 51.3853ZM39.8304 61.1692C38.9886 58.2375 38.4797 54.9195 38.4066 51.3853H42.2313C45.6067 52.7033 48.2958 55.3921 49.6143 58.7675V62.593C46.08 62.5199 42.762 62.011 39.8304 61.1692ZM38.41 62.5894C36.5711 62.0035 34.8792 61.2867 33.3752 60.4594C31.5131 59.4353 29.9052 58.2199 28.6701 56.8505C30.8328 64.2971 36.7024 70.1667 44.149 72.3293C42.7796 71.0943 41.5641 69.4864 40.54 67.6243C39.7128 66.1203 38.996 64.4284 38.41 62.5894ZM49.6143 73.1662C46.8192 72.7729 44.1578 70.527 42.0918 66.7708C41.4926 65.6813 40.9519 64.4775 40.4807 63.1779C43.2899 63.8838 46.3758 64.3 49.6143 64.3643V73.1662ZM56.8505 72.3293C58.22 71.0943 59.4353 69.4864 60.4594 67.6243C61.2862 66.1203 62.0041 64.4284 62.5896 62.5894C64.4283 62.0035 66.12 61.2867 67.6243 60.4594C69.4863 59.4353 71.0947 58.2199 72.3295 56.8505C70.1662 64.2971 64.2973 70.1667 56.8505 72.3293ZM60.5194 63.1779C60.0478 64.4775 59.5063 65.6813 58.9073 66.7708C56.8417 70.527 54.1803 72.7729 51.3852 73.1662V64.3643C54.6237 64.3 57.7096 63.8838 60.5194 63.1779ZM63.1776 60.5188C64.4773 60.0476 65.6815 59.5069 66.7705 58.9076C70.5276 56.8418 72.773 54.1804 73.1662 51.3853H64.3646C64.2997 54.6238 63.8832 57.7097 63.1776 60.5188ZM62.5933 51.3853C62.5198 54.9195 62.0114 58.2375 61.1686 61.1692C58.2375 62.011 54.9195 62.5199 51.3852 62.593V58.7703C52.7033 55.3937 55.393 52.7036 58.7694 51.3853H62.5933ZM64.3646 49.6142H73.1662C72.773 46.8191 70.5276 44.1577 66.7705 42.0919C65.6815 41.4926 64.4773 40.9519 63.1776 40.4807C63.8832 43.2898 64.2997 46.3757 64.3646 49.6142ZM61.1686 39.8303C62.0114 42.762 62.5198 46.08 62.5933 49.6142H58.7695C55.393 48.2959 52.7033 45.6058 51.3852 42.2292V38.4065C54.9195 38.4796 58.2375 38.9885 61.1686 39.8303ZM62.5896 38.4101C64.4283 38.996 66.12 39.7128 67.6243 40.5401C69.4863 41.5642 71.0947 42.7796 72.3295 44.149C70.1662 36.7024 64.2973 30.8328 56.8505 28.6701C58.22 29.9051 59.4353 31.5131 60.4594 33.3752C61.2862 34.8792 62.0041 36.5711 62.5896 38.4101ZM51.3852 27.8332C54.1803 28.2266 56.8417 30.4725 58.9073 34.2287C59.5063 35.3182 60.0478 36.5219 60.5194 37.8216C57.7096 37.1157 54.6237 36.6995 51.3852 36.6351V27.8332Z" fill="#4353FF"/>
</svg>
