<svg width="164" height="41" viewBox="0 0 164 41" fill="none" xmlns="http://www.w3.org/2000/svg">
<path d="M11.8862 27.1146C7.55894 27.1146 0.800781 27.736 0.800781 21.4948C0.800781 18.3201 3.11 15.5664 6.42062 15.5664C17.2195 15.5664 25.9688 24.3157 25.9688 35.1146V35.2028C25.9688 38.3102 23.4564 40.8226 20.349 40.8226C14.2028 40.8226 14.7292 34.2689 14.7292 29.9796C14.7292 28.3929 13.4509 27.1146 11.8862 27.1146Z" fill="#251E34" fill-opacity="0.6"/>
<path d="M27.1146 11.8849C27.1146 7.55771 27.736 0.799551 21.4948 0.799551C20.9565 0.799551 15.5664 0.21977 15.5664 6.41939C15.5664 17.2183 24.3157 25.9676 35.1146 25.9676C38.2125 25.9676 40.8226 23.4827 40.8226 20.3478C40.8226 14.2016 34.2689 14.7279 29.9796 14.7279C28.3929 14.7279 27.1146 13.4497 27.1146 11.8849Z" fill="#251E34" fill-opacity="0.6"/>
<g clip-path="url(#clip0_6037_13237)">
<path d="M59.5674 23.5972H56.765V29.4004H52.9954V11.594H59.5674C63.9074 11.594 66.6106 13.6524 66.6106 17.5212C66.6106 21.39 63.9074 23.5972 59.5674 23.5972ZM59.5426 14.7684H56.765V20.4228H59.5426C61.6754 20.4228 62.8658 19.3068 62.8658 17.546C62.8658 15.7852 61.6754 14.7684 59.5426 14.7684ZM72.9431 29.4004H69.1735V11.594H76.1423C80.6311 11.594 83.2351 13.6772 83.2351 17.3724C83.2351 19.778 81.7471 21.6876 79.2175 22.5308L83.8055 29.4004H79.3167L75.2991 23.1012H72.9431V29.4004ZM72.9431 14.7188V20.0012H75.9687C78.2503 20.0012 79.4655 19.1084 79.4655 17.3724C79.4655 15.6116 78.2503 14.7188 75.9687 14.7188H72.9431ZM98.1292 26.1268V29.4004H86.1508V11.594H97.9556V14.8676H89.9204V18.6124H97.2116V21.8612H89.9204V26.1268H98.1292ZM112.553 29.4004H101.045V11.594H104.815V26.0028H112.553V29.4004ZM129.142 11.594V22.63C129.142 26.846 126.464 29.7724 121.826 29.7724C117.114 29.7724 114.486 26.846 114.486 22.63V11.594H118.255V22.7044C118.255 24.9116 119.322 26.3996 121.826 26.3996C124.306 26.3996 125.373 24.9116 125.373 22.7044V11.594H129.142ZM139.072 29.4004H132.748V11.594H139.072C144.726 11.594 148.149 15.2148 148.149 20.398C148.149 25.5812 144.602 29.4004 139.072 29.4004ZM136.517 14.8428V26.1516H138.873C142.42 26.1516 144.28 24.0932 144.28 20.398C144.28 16.8516 142.42 14.8428 138.873 14.8428H136.517ZM162.745 26.1268V29.4004H150.766V11.594H162.571V14.8676H154.536V18.6124H161.827V21.8612H154.536V26.1268H162.745Z" fill="#251E34" fill-opacity="0.6"/>
</g>
<defs>
<clipPath id="clip0_6037_13237">
<rect width="110.4" height="40" fill="white" transform="translate(53 1)"/>
</clipPath>
</defs>
</svg>
