<svg width="227" height="50" viewBox="0 0 227 50" fill="none" xmlns="http://www.w3.org/2000/svg">
<path d="M50.3662 12.0624C50.9925 9.60553 49.5085 7.1061 47.0516 6.47982C44.5946 5.85355 42.0952 7.33758 41.4689 9.79451C40.8427 12.2514 42.3267 14.7509 44.7836 15.3771C47.2405 16.0034 49.74 14.5194 50.3662 12.0624Z" fill="#251E34"/>
<path d="M34.9477 7.94628C39.1903 2.65222 31.7517 -2.66888 27.8643 2.18078C27.6462 2.39939 2.43817 33.466 2.26757 33.7248C-2.21175 39.3138 4.91428 45.0253 9.35094 39.4903C9.56886 39.2715 34.7771 8.20482 34.9477 7.94628Z" fill="#251E34"/>
<path d="M40.5007 24.8616C44.5722 19.7814 37.4464 14.0701 33.4194 19.0942C33.1994 19.3142 16.0752 40.4938 15.9032 40.7547C11.8049 46.0625 18.9307 51.7737 22.9845 46.522C23.2045 46.302 40.329 25.1224 40.5007 24.8616Z" fill="#251E34"/>
<path d="M9.05583 15.214C11.4255 14.3124 12.6156 11.6605 11.714 9.29076C10.8124 6.92106 8.16043 5.73095 5.79073 6.63259C3.42102 7.53422 2.23092 10.1862 3.13255 12.5559C4.03418 14.9256 6.68613 16.1157 9.05583 15.214Z" fill="#251E34"/>
<g clip-path="url(#clip0_24_1456)">
<path d="M72.3961 36.85L65.5801 13.938H67.9801L72.6201 29.682C72.9401 30.802 73.2281 31.954 73.5161 33.458C73.9001 31.794 74.2201 30.802 74.5721 29.682L79.5641 13.938H81.9641L86.9561 29.682C87.3081 30.834 87.6281 31.986 87.9801 33.458C88.3321 31.698 88.6201 30.578 88.8761 29.714L93.6121 13.938H95.9481L89.0681 36.85H86.8921L80.7481 17.394L74.6041 36.85H72.3961ZM96.9778 36.85H94.6418L103.058 13.938H105.906L114.418 36.85H112.018L109.778 30.77H99.2178L96.9778 36.85ZM104.178 17.17L99.9218 28.754H109.042L104.754 17.17C104.658 16.85 104.498 16.466 104.466 16.242C104.434 16.434 104.306 16.85 104.178 17.17ZM120.727 27.282L112.951 13.938H115.543L121.207 23.826C121.463 24.306 121.655 24.69 121.879 25.202C122.167 24.626 122.167 24.626 122.583 23.826L128.183 13.938H130.711L123.031 27.282V36.85H120.727V27.282ZM137.726 13.458V33.074H147.518V36.85H133.63V13.458H137.726ZM154.944 13.458V36.85H150.848V13.458H154.944ZM164.162 36.85H160.13V13.458H164.194L175.17 30.034V13.458H179.202V36.85H175.17L164.162 20.274V36.85ZM198.908 36.85H184.38V13.458H198.908V17.234H188.476V23.25H197.82V26.866H188.476V33.074H198.908V36.85Z" fill="#251E34"/>
</g>
<defs>
<clipPath id="clip0_24_1456">
<rect width="161" height="50" fill="white" transform="translate(65.5)"/>
</clipPath>
</defs>
</svg>
